<svg version="1.1" xmlns="http://www.w3.org/2000/svg" xmlns:xlink="http://www.w3.org/1999/xlink" x="0px" y="0px" width="687px"
	 height="558px" viewBox="0 0 687 558" enable-background="new 0 0 687 558" xml:space="preserve">

	 <style type="text/css">

	 	#cursor {
	 		-webkit-animation: moveCursorInToOne 2s ease-out 0.5s, 
	 			moveBackCursorFromOne 1s ease-out 2.5s,
	 			moveCursorInToTwo 1.5s ease-out 4s,
	 			moveBackCursorFromTwo 1s ease-out 5.5s,
	 			moveCursorInToThree 2s ease-out 6.75s,
	 			moveBackCursorFromThree 1s ease-out 8.75s,
	 			moveCursorInToFour 2s ease-out 10.25s;
	 	}

	 	/* **************************** */
	 	/* ******** KNOWLEDGE ********* */
	 	/* **************************** */

	 	#knowledge {
	 		-webkit-animation: rollOpen 0.25s linear 0s, 
	 			rollOut 0.25s linear 3.5s;
	 		-webkit-transform-origin: center center;
	 		-webkit-animation-fill-mode: forwards;
	 	}

	 	#knowledge-fill {
	 		-webkit-animation: fillBrain 2s ease-out 0.5s;
	 	}

	 	#nob { 
	 		-webkit-animation: moveNob 2s ease-out 0.5s;
	 	}

	 	@-webkit-keyframes fillBrain {
	 		0% { -webkit-transform: translateY(0px); }
	 		50% { -webkit-transform: translateY(0px); }
	 		100% { -webkit-transform: translateY(-140px); }
	 	}

	 	@-webkit-keyframes moveNob {
	 		0% { -webkit-transform: translateY(0px); }
	 		50% { -webkit-transform: translateY(0px); }
	 		100% { -webkit-transform: translateY(-220px); }
	 	}

	 	/* **************************** */
	 	/* ******** BUSINESS ********** */
	 	/* **************************** */

	 	#business {
	 		-webkit-animation: rollOpen 0.25s linear 3.75s,
	 			rollOut 0.25s linear 6.5s;
	 		-webkit-transform: rotateX(90deg);
	 		-webkit-transform-origin: center center;
	 		-webkit-animation-fill-mode: forwards;
	 	}

	 	#building {
	 		-webkit-animation: scaleUpBusiness 0.75s ease-out 4.75s;
	 		-webkit-transform-origin: center center;
	 		-webkit-animation-fill-mode: forwards;
	 	}

	 	#selector {
	 		-webkit-animation: showSelector 0.01s linear 4.5s,
	 			hideSelector 0.01s linear 5.6s;
	 		-webkit-animation-fill-mode: forwards;
	 		opacity: 0;
	 	}

	 	@-webkit-keyframes scaleUpBusiness {
	 		0% { -webkit-transform: scale( 1 ); }
	 		100% { -webkit-transform: scale( 1.2 ) translateY(-30px); }
	 	}

	 	@-webkit-keyframes showSelector {
	 		0% { opacity: 0; }
	 		100% { opacity: 1; }
	 	}

	 	@-webkit-keyframes hideSelector {
	 		0% { opacity: 1; }
	 		100% { opacity: 0; }
	 	}

	 	/* **************************** */
	 	/* ************ HELP ********** */
	 	/* **************************** */

	 	#help {
	 		-webkit-animation: rollOpen 0.25s linear 6.75s,
	 			rollOut 0.25s linear 9.75s;
	 		-webkit-transform: rotateX(90deg);
	 		-webkit-transform-origin: center center;
	 		-webkit-animation-fill-mode: forwards;
	 	}

	 	#files1 {
	 		-webkit-animation: moveFiles 1s ease-out 7.75s;
	 		-webkit-transform-origin: center center;
	 		-webkit-animation-fill-mode: forwards;
	 	}

	 	#points1 {
	 		-webkit-animation: movePoints1 0.15s linear 8.75s;
	 		-webkit-transform-origin: center center;
	 		-webkit-animation-fill-mode: forwards;
	 	}

	 	#points2 {
	 		-webkit-animation: movePoints2 0.15s linear 8.9s;
	 		-webkit-transform-origin: center center;
	 		-webkit-animation-fill-mode: forwards;
	 	}

	 	#points3 {
	 		-webkit-animation: movePoints3 0.15s linear 9.05s;
	 		-webkit-transform-origin: center center;
	 		-webkit-animation-fill-mode: forwards;
	 	}

	 	#points4 {
	 		-webkit-animation: movePoints4 0.15s linear 9.35s;
	 		-webkit-transform-origin: center center;
	 		-webkit-animation-fill-mode: forwards;
	 	}

	 	#points5 {
	 		-webkit-animation: movePoints5 0.15s linear 9.2s;
	 		-webkit-transform-origin: center center;
	 		-webkit-animation-fill-mode: forwards;
	 	}

	 	@-webkit-keyframes moveFiles {
	 		0% {  }
	 		100% { -webkit-transform: translateX( 400px ); }
	 	}

	 	@-webkit-keyframes movePoints1 {
	 		0% {  }
	 		50% { -webkit-transform: translateX( -85px ) translateY( -85px ) scale( 1.5 ); }
	 		100% { -webkit-transform: translateX( -75px ) translateY( -75px ) scale( 1 ); }
	 	}

	 	@-webkit-keyframes movePoints2 {
	 		0% {  }
	 		50% { -webkit-transform: translateX( 85px ) translateY( -85px ) scale( 1.5 ); }
	 		100% { -webkit-transform: translateX( 75px ) translateY( -75px ) scale( 1 ); }
	 	}

	 	@-webkit-keyframes movePoints3 {
	 		0% {  }
	 		50% { -webkit-transform: translateX( -105px ) translateY( 35px ) scale( 1.5 ); }
	 		100% { -webkit-transform: translateX( -95px ) translateY( 25px ) scale( 1 ); }
	 	}

	 	@-webkit-keyframes movePoints4 {
	 		0% {  }
	 		50% { -webkit-transform: translateX( 15px ) translateY( -115px ) scale( 1.5 ); }
	 		100% { -webkit-transform: translateX( 5px ) translateY( -105px ) scale( 1 ); }
	 	}

	 	@-webkit-keyframes movePoints5 {
	 		0% {  }
	 		50% { -webkit-transform: translateX( -45px ) translateY( -155px ) scale( 1.5 ); }
	 		100% { -webkit-transform: translateX( -35px ) translateY( -145px ) scale( 1 ); }
	 	}

	 	/* **************************** */
	 	/* ********* SPEND ************ */
	 	/* **************************** */

	 	#spend {
	 		-webkit-animation: rollOpen 0.25s linear 10s,
	 			rollOut 0.25s linear 13.5s;
	 		-webkit-transform: rotateX(90deg);
	 		-webkit-transform-origin: center center;
	 		-webkit-animation-fill-mode: forwards;
	 	}

	 	#button {
	 		-webkit-animation: clickButton 0.25s linear 11.25s;
	 		-webkit-transform-origin: center center;
	 	}

	 	#spent-point {
	 		-webkit-animation: showPoints 0.25s linear 11.5s 5;
	 		opacity: 0;
	 	}

	 	#spent-point-container {
	 		-webkit-animation: pushPoints 0.25s linear 11.5s 5;
	 	}

	 	#discount {
	 		-webkit-animation: scaleDiscount 0.25s linear 11.75s 5;
	 		-webkit-transform-origin: center center;
	 	}

	 	#site1 {
	 		-webkit-animation: rotateSite1 0.25s ease-out 11.75s 5;
	 		-webkit-transform-origin: center center;
	 	}

	 	#site2 {
	 		-webkit-animation: rotateSite1 0.25s ease-out 11.8s 5;
	 		-webkit-transform-origin: center center;
	 	}

	 	#dText1 {
	 		opacity: 1;
	 		-webkit-animation: showHideDiscountBeginning .25s ease-in-out 11.75s;
	 		-webkit-animation-fill-mode: forwards;
	 	}

	 	#dText2 {
	 		opacity: 0;
	 		-webkit-animation: showHideDiscountMiddle .25s ease-in-out 12s;
	 		-webkit-animation-fill-mode: forwards;
	 	}

	 	#dText3 {
	 		opacity: 0;
	 		-webkit-animation: showHideDiscountMiddle .25s ease-in-out 12.25s;
	 		-webkit-animation-fill-mode: forwards;
	 	}

	 	#dText4 {
	 		opacity: 0;
	 		-webkit-animation: showHideDiscountMiddle .25s ease-in-out 12.5s;
	 		-webkit-animation-fill-mode: forwards;
	 	}

	 	#dText5 {
	 		opacity: 0;
	 		-webkit-animation: showHideDiscountEnd .75s ease-in-out 12.75s;
	 		-webkit-animation-fill-mode: forwards;
	 	}

	 	@-webkit-keyframes clickButton {
	 		0% {  }
	 		50% { -webkit-transform: scale( 1.2 ); }
	 		100% { -webkit-transform: scale( 1 ); }
	 	}

	 	@-webkit-keyframes showPoints {
	 		0% { opacity: 0; }
	 		5% { opacity: 1; }
	 		95% { opacity: 1; }
	 		100% { opacity: 0; }

	 	}

	 	@-webkit-keyframes pushPoints {
	 		0% {  }
	 		100% { -webkit-transform: translateX( 200px ); }
	 	}

	 	@-webkit-keyframes scaleDiscount {
	 		0% { -webkit-transform: scale(1); }
	 		50% { -webkit-transform: scale(1.5); }
	 		100% {  -webkit-transform: scale(1); }
	 	}

	 	@-webkit-keyframes rotateSite1 {
	 		0% { -webkit-transform: rotate(0deg); }
	 		50% { -webkit-transform: rotate(-10deg); }
	 		100% { -webkit-transform: rotate(0deg); }
	 	}

	 	@-webkit-keyframes rotateSite2 {
	 		0% { -webkit-transform: rotate(0deg); }
	 		50% { -webkit-transform: rotate(-5deg); }
	 		100% { -webkit-transform: rotate(0deg); }
	 	}

	 	@-webkit-keyframes showHideDiscountBeginning {
	 		0% { opacity: 1; }
	 		99% { opacity: 1; }
	 		100% { opacity: 0; }
	 	}

	 	@-webkit-keyframes showHideDiscountMiddle {
	 		0% { opacity: 0; }
	 		1% { opacity: 1; }
	 		99% { opacity: 1; }
	 		100% { opacity: 0; }
	 	}

	 	@-webkit-keyframes showHideDiscountEnd {
	 		0% { opacity: 0; }
	 		1% { opacity: 1; }
	 		100% { opacity: 1; }
	 	}

	 	/* **************************** */
	 	/* ***** CURSOR ANIMATIONS **** */
	 	/* **************************** */

	 	@-webkit-keyframes moveCursorInToOne {
	 		0% {  }
	 		50% { -webkit-transform: translateX(-150px) translateY(260px); }
	 		100% { -webkit-transform: translateX(-150px) translateY(40px); }
	 	}

	 	@-webkit-keyframes moveBackCursorFromOne {
	 		0% { -webkit-transform: translateX(-150px) translateY(40px); }
	 		100% { -webkit-transform: translateX(0px) translateY(0px); }
	 	}

	 	@-webkit-keyframes moveCursorInToTwo {
	 		0% { -webkit-transform: translateX(0px) translateY(0px); }
	 		50% { -webkit-transform: translateX(-145px) translateY(-6px); }
	 		100% { -webkit-transform: translateX(-115px) translateY(-70px); }
	 	}

	 	@-webkit-keyframes moveBackCursorFromTwo {
	 		0% { -webkit-transform: translateX(-130px) translateY(-70px); }
	 		100% { -webkit-transform: translateX(0px) translateY(0px); }
	 	}

	 	@-webkit-keyframes moveCursorInToThree {
	 		0% { -webkit-transform: translateX(0px) translateY(0px); }
	 		50% { -webkit-transform: translateX(-500px) translateY(100px); }
	 		100% { -webkit-transform: translateX(-100px) translateY(100px); }
	 	}

	 	@-webkit-keyframes moveBackCursorFromThree {
	 		0% { -webkit-transform: translateX(-100px) translateY(100px); }
	 		100% { -webkit-transform: translateX(0px) translateY(0px); }
	 	}

	 	@-webkit-keyframes moveCursorInToFour {
	 		0% { -webkit-transform: translateX(0px) translateY(0px); }
	 		50% { -webkit-transform: translateX(-300px) translateY(250px); }
	 		65% { -webkit-transform: translateX(-300px) translateY(250px); }
	 		100% { -webkit-transform: translateX(0px) translateY(0px); }
	 	}

	 	/* **************************** */
	 	/* ******** SLIDERS *********** */
	 	/* **************************** */

	 	@-webkit-keyframes rollOpen {
	 		0% { -webkit-transform: rotateX(90deg); }
	 		100% { -webkit-transform: rotateX(0deg); }
	 	}

	 	@-webkit-keyframes rollOut {
	 		0% { -webkit-transform: rotateX(0deg); }
	 		100% { -webkit-transform: rotateX(90deg); }
	 	}

	 </style>

<g id="middle" display="none">
	
		<line display="inline" fill="none" stroke="#000000" stroke-width="5" stroke-miterlimit="10" x1="330.179" y1="-24.502" x2="330.179" y2="562.701"/>
</g>
<g id="spend">
	<text transform="matrix(1 0 0 1 17.4131 525.3291)" fill="#659A41" font-family="'Franchise-Bold'" font-size="52">Spend Points for Freebies and Discounts!</text>
	<g id="main-site">
		
			<rect id="window" x="196.179" y="65.134" fill="#FFFFFF" stroke="#848484" stroke-width="7.6264" stroke-miterlimit="10" width="268" height="372.05"/>
		<g id="button">
			<path fill="#659A41" d="M393.48,392.829c0,4.521-3.664,8.186-8.186,8.186H269.062c-4.521,0-8.186-3.665-8.186-8.186V353.54
				c0-4.521,3.665-8.186,8.186-8.186h116.232c4.521,0,8.186,3.664,8.186,8.186V392.829z"/>
			<text transform="matrix(1 0 0 1 271.0967 382.8164)" fill="#FFFFFF" font-family="'Franchise-Bold'" font-size="27.1763">Spend Points!</text>
		</g>
		<g id="site3">
			
				<rect x="290.782" y="180.268" transform="matrix(0.9999 -0.0117 0.0117 0.9999 -2.7729 4.0341)" fill="#C5DC71" stroke="#659A41" stroke-width="9.1339" stroke-miterlimit="10" width="105.798" height="117.871"/>
			<polyline fill="none" stroke="#659A41" stroke-width="4.1682" stroke-miterlimit="10" points="329.915,219.082 335.767,212.665 
				340.921,218.953 345.927,212.545 351.927,218.826 358.203,212.401 364.203,218.682 370.478,212.257 376.479,218.538 			"/>
		</g>
		<g id="site2">
			
				<rect x="284.845" y="160.244" transform="matrix(0.9252 -0.3794 0.3794 0.9252 -58.9687 144.7563)" fill="#659A41" width="105.799" height="123.461"/>
			<polyline fill="none" stroke="#FFFFFF" stroke-width="4.1682" stroke-miterlimit="10" points="321.773,201.368 324.847,193.244 
				331.956,197.191 334.247,189.389 346.402,193.261 345.606,184.73 353.499,188.356 356.964,180.072 364.856,183.699 			"/>
		</g>
		<g id="site1">
			
				<rect x="270.558" y="145.753" transform="matrix(0.784 -0.6207 0.6207 0.784 -59.8355 242.0303)" fill="#FFFFFF" stroke="#848484" stroke-width="8.8092" stroke-miterlimit="10" width="94.687" height="122.502"/>
			<polyline fill="none" stroke="#C5DC71" stroke-width="4.1682" stroke-miterlimit="10" points="297.623,194.236 298.329,185.578 
				306.253,187.404 306.295,179.273 314.882,180.572 315.92,171.652 324.508,172.952 325.545,164.033 334.133,165.332 			"/>
		</g>
		<g id="discount">
			<circle fill="#FFFFFF" stroke="#EF4849" stroke-width="18" stroke-miterlimit="10" cx="295.427" cy="255.936" r="59.63"/>
			<text id="dText5" transform="matrix(1 0 0 1 264.3252 260.6924)" font-family="'Franchise-Bold'" font-size="51.6038">50%</text>
			<text id="dText4" transform="matrix(1 0 0 1 264.3252 260.6924)" font-family="'Franchise-Bold'" font-size="51.6038">40%</text>
			<text id="dText3" transform="matrix(1 0 0 1 264.3252 260.6924)" font-family="'Franchise-Bold'" font-size="51.6038">30%</text>
			<text id="dText2" transform="matrix(1 0 0 1 264.3252 260.6924)" font-family="'Franchise-Bold'" font-size="51.6038">20%</text>
			<text id="dText1" transform="matrix(1 0 0 1 264.3252 260.6924)" font-family="'Franchise-Bold'" font-size="51.6038">10%</text>
			<text transform="matrix(1 0 0 1 275.4194 288.8584)" font-family="'Cabin-Regular'" font-size="28.6311">off!</text>
		</g>
		<text transform="matrix(1 0 0 1 221.0264 115.8647)" fill="#659A41" font-family="'Franchise-Bold'" font-size="45.4074">Build Your Site!</text>
		<g id="browser">
			<rect x="192.346" y="30.805" fill="#848484" width="275.693" height="31.153"/>
			<rect x="207.679" y="50.935" fill="#FFFFFF" width="236.5" height="7"/>
			<rect x="448.429" y="30.805" fill="#EF4849" width="19.61" height="7.13"/>
			<polyline fill="none" stroke="#757576" stroke-width="1.055" stroke-miterlimit="10" points="213.503,56.229 216.592,52.845 
				219.309,56.164 221.95,52.785 225.114,56.099 228.427,52.713 231.591,56.027 234.901,52.64 238.065,55.954 			"/>
			<polyline fill="none" stroke="#757576" stroke-width="1.055" stroke-miterlimit="10" points="237.562,56.229 240.65,52.845 
				243.367,56.164 246.009,52.785 249.173,56.099 252.485,52.713 255.649,56.027 258.96,52.64 262.124,55.954 			"/>
			<circle fill="none" stroke="#757576" stroke-width="1.055" stroke-miterlimit="10" cx="449.409" cy="33.749" r="2.012"/>
			
				<line fill="none" stroke="#757576" stroke-width="1.055" stroke-miterlimit="10" x1="450.537" y1="35.416" x2="452.695" y2="37.44"/>
		</g>
	</g>
	<g id="spent-point-container">
		<g id="spent-point">
			<circle fill="#C5DC71" stroke="#99CA3C" stroke-width="8.339" stroke-miterlimit="10" cx="90.762" cy="255.354" r="26.934"/>
			
				<text transform="matrix(1 0 0 1 72.2197 262.6475)" fill="#659A41" stroke="#649941" stroke-width="1.0424" stroke-miterlimit="10" font-family="'Cabin-Bold'" font-size="19.3423">100</text>
		</g>
	</g>
</g>
<g id="help">
	<text transform="matrix(1 0 0 1 67.4131 525.3291)" fill="#864C9E" font-family="'Franchise-Bold'" font-size="63.6486">Help Others and Earn Points</text>
	<g id="points5">
		<circle fill="#C5DC71" stroke="#99CA3C" stroke-width="8.339" stroke-miterlimit="10" cx="143.762" cy="249.965" r="26.934"/>
		
			<text transform="matrix(1 0 0 1 125.2197 257.2588)" fill="#659A41" stroke="#649941" stroke-width="1.0424" stroke-miterlimit="10" font-family="'Cabin-Bold'" font-size="19.3423">100</text>
	</g>
	<g id="points4">
		<circle fill="#C5DC71" stroke="#99CA3C" stroke-width="8.339" stroke-miterlimit="10" cx="183.762" cy="229.965" r="26.934"/>
		
			<text transform="matrix(1 0 0 1 165.2197 237.2588)" fill="#659A41" stroke="#649941" stroke-width="1.0424" stroke-miterlimit="10" font-family="'Cabin-Bold'" font-size="19.3423">100</text>
	</g>
	<g id="points3">
		<circle fill="#C5DC71" stroke="#99CA3C" stroke-width="8.339" stroke-miterlimit="10" cx="113.762" cy="279.965" r="26.934"/>
		
			<text transform="matrix(1 0 0 1 95.2197 287.2588)" fill="#659A41" stroke="#649941" stroke-width="1.0424" stroke-miterlimit="10" font-family="'Cabin-Bold'" font-size="19.3423">100</text>
	</g>
	<g id="points2">
		<circle fill="#C5DC71" stroke="#99CA3C" stroke-width="8.339" stroke-miterlimit="10" cx="203.762" cy="269.965" r="26.934"/>
		
			<text transform="matrix(1 0 0 1 185.2197 277.2588)" fill="#659A41" stroke="#649941" stroke-width="1.0424" stroke-miterlimit="10" font-family="'Cabin-Bold'" font-size="19.3423">100</text>
	</g>
	<g id="points1">
		<circle fill="#C5DC71" stroke="#99CA3C" stroke-width="8.339" stroke-miterlimit="10" cx="83.762" cy="238.965" r="26.934"/>
		
			<text transform="matrix(1 0 0 1 65.2197 246.2588)" fill="#659A41" stroke="#649941" stroke-width="1.0424" stroke-miterlimit="10" font-family="'Cabin-Bold'" font-size="19.3423">100</text>
	</g>
	<circle id="behind_x5F_head_x5F_cicle" fill="#FFFFFF" cx="141.662" cy="251.79" r="89.356"/>
	<path id="head1" fill="#FFFFFF" stroke="#757576" stroke-width="6" stroke-miterlimit="10" d="M252.102,288.433
		c-3.215-3.709-15.084-11.869-16.32-22.996s0.248-29.178,0.248-29.178s-6.406-56.626-61.312-72.943c0,0-22.513-7.42-55.151,0
		c-32.64,7.42-70.72,29.673-76.901,70.72s26.211,81.35,27.447,84.07s10.139,35.109-9.643,105.582h114.978
		c0,0-5.191-28.932,12.117-43.272c0,0,5.688-3.955,21.76-3.214s23.242-4.451,24.973-9.396c1.731-4.945-3.955-10.137-4.203-12.609
		c-0.246-2.473,4.946-8.902,8.902-11.622s-2.721-8.654-3.957-8.901c0,0,5.688-3.462,6.43-4.451s-1.771-12.273-0.989-14.342
		c2.874-7.606,14.774-9.306,16.814-13.026C260.354,297.272,255.315,292.142,252.102,288.433z M158.641,275.369
		c-42.089,42.089-62.493,41.178-77.278,30.763c-14.785-10.416-24.94-48.445-24.94-55.364c0-6.918-5.465-44.368,48.273-70.647
		c0,0,49.23-16.508,73.414-2.576c0,0,43.736,18.316,43.736,57.799C221.846,263.258,186.496,247.513,158.641,275.369z"/>
	<path id="head2" fill="#757576" d="M407.563,302.853c2.04,3.721,13.94,5.42,16.814,13.026c0.781,2.068-1.731,13.353-0.989,14.342
		s6.43,4.451,6.43,4.451c-1.236,0.247-7.913,6.182-3.957,8.901s9.148,9.149,8.902,11.622c-0.248,2.473-5.935,7.664-4.203,12.609
		c1.73,4.945,8.9,10.138,24.973,9.396s21.76,3.214,21.76,3.214c17.309,14.341,12.117,43.272,12.117,43.272h114.978
		c-19.781-70.473-10.879-102.861-9.643-105.582s33.629-43.023,27.447-84.07s-44.262-63.3-76.901-70.72
		c-32.639-7.42-55.151,0-55.151,0c-54.905,16.317-61.312,72.943-61.312,72.943s1.484,18.051,0.248,29.178
		s-13.105,19.287-16.32,22.996C409.542,292.142,404.504,297.272,407.563,302.853z M443.012,235.343
		c0-39.482,43.736-57.799,43.736-57.799c24.184-13.932,73.414,2.576,73.414,2.576c53.738,26.279,48.273,63.729,48.273,70.647
		c0,6.919-10.155,44.948-24.94,55.364c-14.785,10.415-35.189,11.326-77.278-30.763C478.361,247.513,443.012,263.258,443.012,235.343
		z"/>
	<g id="files1">
		<path display="inline" fill="#9C69AC" d="M153.136,188.65h-32.013v69.071h52.579v-50.64L153.136,188.65z M165.748,250.737h-36.477
			v-4.269h36.477V250.737z M165.748,241.229h-36.477v-4.268h36.477V241.229z M165.748,232.888h-36.477v-4.27h36.477V232.888z
			 M165.748,223.187h-36.477v-4.269h36.477V223.187z M172.344,211.352h-19.295h-3.493v-3.493V190.21h3.493v17.648h19.295V211.352z"
			/>
		<polygon display="inline" fill="#9C69AC" points="145.671,261.981 109.195,261.981 109.195,257.713 116.852,257.713 
			116.852,252.474 109.195,252.474 109.195,248.206 116.852,248.206 116.852,244.132 109.195,244.132 109.195,239.862 
			116.852,239.862 116.852,234.431 109.195,234.431 109.195,230.162 116.852,230.162 116.852,199.895 101.046,199.895 
			101.046,268.966 153.625,268.966 153.625,261.97 145.671,261.97 		"/>
	</g>
	<g id="files2">
		<path display="inline" fill="#9C69AC" d="M153.136,188.65h-32.013v69.071h52.579v-50.64L153.136,188.65z M165.748,250.737h-36.477
			v-4.269h36.477V250.737z M165.748,241.229h-36.477v-4.268h36.477V241.229z M165.748,232.888h-36.477v-4.27h36.477V232.888z
			 M165.748,223.187h-36.477v-4.269h36.477V223.187z M172.344,211.352h-19.295h-3.493v-3.493V190.21h3.493v17.648h19.295V211.352z"
			/>
		<polygon display="inline" fill="#9C69AC" points="145.671,261.981 109.195,261.981 109.195,257.713 116.852,257.713 
			116.852,252.474 109.195,252.474 109.195,248.206 116.852,248.206 116.852,244.132 109.195,244.132 109.195,239.862 
			116.852,239.862 116.852,234.431 109.195,234.431 109.195,230.162 116.852,230.162 116.852,199.895 101.046,199.895 
			101.046,268.966 153.625,268.966 153.625,261.97 145.671,261.97 		"/>
	</g>
</g>
<g id="business">
	<g id="building">
		<path fill="#757576" d="M216.811,286.247c8.398,0,15.209-6.771,15.287-15.152h1.787c0.078,8.381,6.889,15.152,15.288,15.152
			c8.398,0,15.21-6.771,15.286-15.152h1.789c0.076,8.381,6.888,15.152,15.287,15.152c8.398,0,15.209-6.771,15.287-15.152h2.674
			c0.078,8.381,6.889,15.152,15.288,15.152c8.398,0,15.21-6.771,15.286-15.152h1.789c0.076,8.381,6.888,15.152,15.287,15.152
			c8.398,0,15.209-6.771,15.287-15.152h1.787c0.078,8.381,6.889,15.152,15.288,15.152c8.398,0,15.21-6.771,15.286-15.152h2.232
			c0.076,8.381,6.888,15.152,15.287,15.152c8.398,0,15.209-6.771,15.287-15.152h1.787c0.078,8.381,6.889,15.152,15.288,15.152
			c8.398,0,15.21-6.771,15.286-15.152l-29.25-50.539h-66.056V203.71h22.362c5.523,0,10-4.477,10-10v-29.463c0-5.523-4.477-10-10-10
			H276.24c-5.523,0-10,4.477-10,10v29.463c0,5.523,4.477,10,10,10h22.362v16.846h-65.611l-24.993,37.909
			c-5.75,10.558-6.475,12.63-6.475,12.63C201.6,279.476,208.411,286.247,216.811,286.247z M314.119,203.71h34.136v16.846h-34.136
			V203.71z"/>
		<path fill="#FDBA33" d="M231.661,384.585H430.27v-92.654H231.661V384.585z M314.562,307.447h98.86v61.179h-98.86V307.447z
			 M247.621,307.447h50.538v61.179h-50.538V307.447z"/>
		<polygon fill="#757576" points="457.755,396.555 451.992,396.555 451.992,389.905 211.712,389.905 211.712,396.555 
			205.948,396.555 205.948,407.194 199.672,407.194 199.672,418.247 463.672,418.247 463.672,407.194 457.755,407.194 		"/>
		<text transform="matrix(1 0 0 1 296.6504 190.5518)" fill="#FFFFFF" font-family="'Franchise-Bold'" font-size="38.1165">STORE</text>
		<g id="selector">
		
			<rect x="184.939" y="129.397" fill="none" stroke="#757576" stroke-width="4" stroke-miterlimit="10" width="296.984" height="311.902"/>
		
			<rect x="173.719" y="118.177" fill="#FFFFFF" stroke="#757576" stroke-width="2" stroke-miterlimit="10" width="22.441" height="22.441"/>
		
			<rect x="470.703" y="118.177" fill="#FFFFFF" stroke="#757576" stroke-width="2" stroke-miterlimit="10" width="22.441" height="22.441"/>
		
			<rect x="470.703" y="430.079" fill="#FFFFFF" stroke="#757576" stroke-width="2" stroke-miterlimit="10" width="22.441" height="22.441"/>
		
			<rect x="173.719" y="430.079" fill="#FFFFFF" stroke="#757576" stroke-width="2" stroke-miterlimit="10" width="22.441" height="22.441"/>
		</g>
	</g>
	<text transform="matrix(1 0 0 1 138.3115 518.1924)" fill="#F6881F" font-family="'Franchise-Bold'" font-size="63.6486">Grow Your Business</text>
</g>
<g id="knowledge">
	<rect id="knowledge-fill" x="144.528" y="302.298" fill="#35B5E4" width="185.991" height="147.884"/>
	<path id="head-bg" fill="#FFFFFF" d="M74.781,123.489V452.42h325.483V123.489H74.781z M257.307,272.146
		c-42.089,43.319-62.494,42.382-77.279,31.662s-24.94-49.862-24.94-56.983c0-7.121-5.465-45.667,48.273-72.715
		c0,0,49.23-16.99,73.414-2.65c0,0,43.737,18.852,43.737,59.49C320.512,259.68,285.162,243.474,257.307,272.146z"/>
	<path id="head" fill="#FFFFFF" stroke="#757576" stroke-width="6" stroke-miterlimit="10" d="M346.769,280.983
		c-3.215-3.709-15.084-11.869-16.32-22.996c-1.236-11.127,0.248-29.178,0.248-29.178s-6.407-56.626-61.312-72.944
		c0,0-22.513-7.42-55.151,0c-32.64,7.42-70.719,29.673-76.901,70.72c-6.182,41.047,26.21,81.35,27.447,84.071
		c1.236,2.721,10.138,35.11-9.644,105.583h114.979c0,0-5.191-28.932,12.117-43.273c0,0,5.688-3.955,21.76-3.213
		c16.073,0.74,23.243-4.451,24.973-9.396c1.731-4.945-3.955-10.137-4.203-12.609c-0.246-2.473,4.946-8.902,8.903-11.623
		c3.955-2.719-2.721-8.654-3.957-8.9c0,0,5.688-3.463,6.43-4.451c0.742-0.99-1.771-12.274-0.99-14.342
		c2.875-7.607,14.775-9.307,16.814-13.027C355.021,289.823,349.981,284.692,346.769,280.983z M253.307,267.92
		c-42.089,42.088-62.494,41.178-77.279,30.762s-24.94-48.445-24.94-55.364c0-6.918-5.465-44.368,48.273-70.648
		c0,0,49.23-16.507,73.414-2.575c0,0,43.737,18.316,43.737,57.798C316.512,255.809,281.162,240.063,253.307,267.92z"/>
	<g id="slider">
		<rect id="groove" x="455.341" y="152.568" fill="#323232" width="9.848" height="266.501"/>
		<path id="nob" fill="#D2D2D2" stroke="#757576" stroke-width="4" stroke-miterlimit="10" d="M494.763,393.739c0,2.762-2.238,5-5,5
			h-58.996c-2.762,0-5-2.238-5-5v-12.5c0-2.76,2.238-5,5-5h58.996c2.762,0,5,2.24,5,5V393.739z"/>
	</g>
	<text transform="matrix(1 0 0 1 112.2793 513.8799)" fill="#0099CC" font-family="'Franchise-Bold'" font-size="63.6486">Grow Your Knowledge</text>
</g>
<g id="cursor">
	<polygon id="bg" fill="#FFFFFF" points="625.269,133.674 626.414,173.379 634.206,165.679 635.757,164.482 636.816,165.633 
		639.436,170.723 642.069,175.764 644.702,180.809 649.792,180.809 649.792,175.718 647.204,170.632 644.612,165.588 
		644.748,157.91 651.109,157.818 649.879,155.725 628.993,134.834 	"/>
	<g id="cursor-boxes">
		<polygon fill="#323232" points="655.462,157.91 655.462,160.588 644.748,160.588 644.748,165.542 644.612,165.588 
			642.114,165.588 642.114,157.91 642.128,157.91 644.748,157.91 649.901,157.91 649.901,155.747 652.494,155.747 652.494,157.91 		
			"/>
		<polygon fill="#323232" points="652.427,175.718 652.427,180.809 649.792,180.809 649.792,180.804 649.792,175.718 
			649.838,175.718 		"/>
		<rect x="647.291" y="153.136" fill="#323232" width="2.588" height="2.588"/>
		<polygon fill="#323232" points="649.838,170.632 649.838,175.718 649.792,175.718 647.204,175.718 647.204,170.632 
			647.245,170.632 		"/>
		<polygon fill="#323232" points="649.792,180.809 649.792,183.441 644.702,183.441 644.702,180.809 644.716,180.804 
			649.792,180.804 		"/>
		<rect x="644.681" y="150.526" fill="#323232" width="2.588" height="2.587"/>
		<polygon fill="#323232" points="647.245,165.542 647.245,170.632 647.204,170.632 644.612,170.632 644.612,165.588 
			644.748,165.542 		"/>
		<polygon fill="#323232" points="644.716,175.718 644.716,180.804 644.702,180.809 642.083,180.809 642.083,175.718 		"/>
		<rect x="642.069" y="147.915" fill="#323232" width="2.588" height="2.588"/>
		<polygon fill="#323232" points="642.069,175.718 642.069,175.764 639.436,175.764 639.436,170.723 639.45,170.678 
			642.069,170.678 		"/>
		<rect x="639.458" y="145.304" fill="#323232" width="2.589" height="2.588"/>
		<polygon fill="#323232" points="639.45,165.633 639.45,170.678 639.436,170.723 636.816,170.723 636.816,165.679 636.816,165.633 
					"/>
		<rect x="636.848" y="142.693" fill="#323232" width="2.588" height="2.589"/>
		<rect x="634.237" y="140.079" fill="#323232" width="2.588" height="2.592"/>
		<polygon fill="#323232" points="636.816,165.633 636.816,165.679 634.206,165.679 634.179,165.565 634.179,160.588 
			636.816,160.588 		"/>
		<rect x="631.627" y="137.468" fill="#323232" width="2.587" height="2.593"/>
		<polygon fill="#323232" points="634.206,165.679 634.206,168.153 631.617,168.153 631.617,165.565 634.179,165.565 		"/>
		<rect x="629.016" y="168.176" fill="#323232" width="2.589" height="2.593"/>
		<rect x="629.016" y="134.857" fill="#323232" width="2.589" height="2.588"/>
		<polygon fill="#323232" points="629.002,170.787 629.002,173.379 626.414,173.379 626.414,175.497 623.781,175.497 
			623.781,129.794 626.414,129.794 626.414,132.246 628.993,132.246 628.993,134.834 626.414,134.834 626.414,170.787 		"/>
	</g>
</g>

</svg>